<svg width="160" height="82" viewBox="0 0 160 82" fill="none" xmlns="http://www.w3.org/2000/svg">
<path d="M64 30.1818V35.8636H49.625V30.1818H64ZM52.4091 24.9545H60.25V44.983C60.25 45.286 60.3021 45.5417 60.4062 45.75C60.5104 45.9489 60.6714 46.1004 60.8892 46.2045C61.107 46.2992 61.3864 46.3466 61.7273 46.3466C61.964 46.3466 62.2386 46.3182 62.5511 46.2614C62.8731 46.2045 63.1098 46.1572 63.2614 46.1193L64.3977 51.6307C64.0473 51.7348 63.5455 51.8627 62.892 52.0142C62.2481 52.1657 61.4811 52.2652 60.5909 52.3125C58.7917 52.4072 57.2813 52.2225 56.0597 51.7585C54.8381 51.285 53.9195 50.5417 53.304 49.5284C52.6884 48.5152 52.3902 47.2462 52.4091 45.7216V24.9545ZM77.4766 52.3977C75.1091 52.3977 73.0826 51.929 71.397 50.9915C69.7114 50.0445 68.4188 48.7282 67.5192 47.0426C66.6196 45.3475 66.1697 43.3826 66.1697 41.1477C66.1697 38.9129 66.6196 36.9527 67.5192 35.267C68.4188 33.572 69.7114 32.2557 71.397 31.3182C73.0826 30.3712 75.1091 29.8977 77.4766 29.8977C79.844 29.8977 81.8705 30.3712 83.5561 31.3182C85.2417 32.2557 86.5343 33.572 87.4339 35.267C88.3336 36.9527 88.7834 38.9129 88.7834 41.1477C88.7834 43.3826 88.3336 45.3475 87.4339 47.0426C86.5343 48.7282 85.2417 50.0445 83.5561 50.9915C81.8705 51.929 79.844 52.3977 77.4766 52.3977ZM77.5334 46.6023C78.1963 46.6023 78.7692 46.3797 79.2521 45.9347C79.7351 45.4896 80.1091 44.8551 80.3743 44.0312C80.6394 43.2074 80.772 42.2273 80.772 41.0909C80.772 39.9451 80.6394 38.965 80.3743 38.1506C80.1091 37.3267 79.7351 36.6922 79.2521 36.2472C78.7692 35.8021 78.1963 35.5795 77.5334 35.5795C76.8326 35.5795 76.2313 35.8021 75.7294 36.2472C75.2275 36.6922 74.844 37.3267 74.5788 38.1506C74.3137 38.965 74.1811 39.9451 74.1811 41.0909C74.1811 42.2273 74.3137 43.2074 74.5788 44.0312C74.844 44.8551 75.2275 45.4896 75.7294 45.9347C76.2313 46.3797 76.8326 46.6023 77.5334 46.6023Z" fill="#4EA8DE"/>
<path d="M99.8629 52.2841C98.3099 52.2841 96.88 51.8769 95.5732 51.0625C94.2758 50.2481 93.2341 49.0123 92.4482 47.3551C91.6716 45.6979 91.2834 43.6098 91.2834 41.0909C91.2834 38.4583 91.6906 36.3182 92.505 34.6705C93.3288 33.0227 94.3894 31.8153 95.6868 31.0483C96.9936 30.2812 98.3667 29.8977 99.8061 29.8977C100.886 29.8977 101.833 30.0871 102.647 30.4659C103.461 30.8352 104.143 31.3324 104.692 31.9574C105.242 32.5729 105.658 33.25 105.942 33.9886H106.056V22.9091H113.897V52H106.113V48.4205H105.942C105.639 49.1591 105.204 49.822 104.636 50.4091C104.077 50.9867 103.395 51.446 102.59 51.7869C101.795 52.1184 100.886 52.2841 99.8629 52.2841ZM102.761 46.2614C103.48 46.2614 104.096 46.053 104.607 45.6364C105.128 45.2102 105.526 44.6136 105.8 43.8466C106.085 43.0701 106.227 42.1515 106.227 41.0909C106.227 40.0114 106.085 39.0881 105.8 38.321C105.526 37.5445 105.128 36.9527 104.607 36.5455C104.096 36.1288 103.48 35.9205 102.761 35.9205C102.041 35.9205 101.425 36.1288 100.914 36.5455C100.412 36.9527 100.024 37.5445 99.7493 38.321C99.4841 39.0881 99.3516 40.0114 99.3516 41.0909C99.3516 42.1705 99.4841 43.0985 99.7493 43.875C100.024 44.642 100.412 45.2339 100.914 45.6506C101.425 46.0578 102.041 46.2614 102.761 46.2614ZM128.258 52.3977C125.89 52.3977 123.864 51.929 122.178 50.9915C120.493 50.0445 119.2 48.7282 118.3 47.0426C117.401 45.3475 116.951 43.3826 116.951 41.1477C116.951 38.9129 117.401 36.9527 118.3 35.267C119.2 33.572 120.493 32.2557 122.178 31.3182C123.864 30.3712 125.89 29.8977 128.258 29.8977C130.625 29.8977 132.652 30.3712 134.337 31.3182C136.023 32.2557 137.316 33.572 138.215 35.267C139.115 36.9527 139.565 38.9129 139.565 41.1477C139.565 43.3826 139.115 45.3475 138.215 47.0426C137.316 48.7282 136.023 50.0445 134.337 50.9915C132.652 51.929 130.625 52.3977 128.258 52.3977ZM128.315 46.6023C128.978 46.6023 129.55 46.3797 130.033 45.9347C130.516 45.4896 130.89 44.8551 131.156 44.0312C131.421 43.2074 131.553 42.2273 131.553 41.0909C131.553 39.9451 131.421 38.965 131.156 38.1506C130.89 37.3267 130.516 36.6922 130.033 36.2472C129.55 35.8021 128.978 35.5795 128.315 35.5795C127.614 35.5795 127.013 35.8021 126.511 36.2472C126.009 36.6922 125.625 37.3267 125.36 38.1506C125.095 38.965 124.962 39.9451 124.962 41.0909C124.962 42.2273 125.095 43.2074 125.36 44.0312C125.625 44.8551 126.009 45.4896 126.511 45.9347C127.013 46.3797 127.614 46.6023 128.315 46.6023Z" fill="#5E60CE"/>
<g clip-path="url(#clip0_2512_97)">
<path d="M26.0215 25.933C29.1472 29.9011 30.8158 34.7944 30.7553 39.8155V41.0141L31.7865 41.6416C33.119 42.4482 34.1127 43.6993 34.5866 45.1669C34.1705 44.8605 33.7352 44.5803 33.2833 44.3278L30.5333 42.7838L30.0391 45.9001C29.9963 46.1755 29.9389 46.4485 29.8672 46.718H22.1615C22.0469 46.3655 21.9538 46.0129 21.8679 45.6463L21.2448 42.8261L18.7097 44.2362C18.2861 44.473 17.8772 44.7344 17.4851 45.0188C17.9682 43.5682 18.9412 42.3242 20.2422 41.4935L21.2234 40.866V39.7521C21.2411 34.7513 22.9297 29.8952 26.0287 25.933H26.0215ZM26.0287 23C25.868 23.0004 25.7128 23.058 25.5918 23.1622L25.5274 23.2186C21.3978 27.7656 19.1047 33.6454 19.0821 39.745C17.3297 40.8643 16.0325 42.5543 15.4173 44.5197C14.802 46.485 14.9078 48.6007 15.7162 50.4971C16.5678 48.6455 17.9913 47.1058 19.7839 46.0975C19.9637 46.8642 20.2031 47.6161 20.5 48.3467C20.5377 48.4871 20.6212 48.6114 20.7376 48.7006C20.8541 48.7898 20.9971 48.8388 21.1446 48.8402H31.0847C31.2852 48.8402 31.4857 48.6498 31.586 48.3537C31.8758 47.6592 32.0778 46.9322 32.1875 46.1892C33.9836 47.1932 35.4083 48.7342 36.2553 50.5887C37.1124 48.7017 37.2451 46.5727 36.6287 44.5967C36.0124 42.6206 34.6888 40.9319 32.9037 39.8437C32.9745 33.7082 30.6935 27.7718 26.5157 23.2186C26.4535 23.1501 26.3773 23.0952 26.2922 23.0576C26.2071 23.0199 26.1149 23.0003 26.0215 23H26.0287Z" fill="#4EA8DE"/>
<path d="M26.0216 39.1598C25.4715 39.1598 24.9338 38.9995 24.4761 38.699C24.0185 38.3986 23.6614 37.9715 23.4499 37.4716C23.2385 36.9716 23.1821 36.4213 23.2878 35.8898C23.3936 35.3584 23.6568 34.8697 24.0442 34.4853C24.4317 34.1009 24.9261 33.838 25.465 33.7298C26.004 33.6216 26.5634 33.6729 27.0728 33.8773C27.5822 34.0816 28.0188 34.4298 28.3275 34.8781C28.6361 35.3263 28.8031 35.8545 28.8074 36.396C28.8159 36.7469 28.7542 37.0961 28.6256 37.4235C28.4971 37.751 28.3043 38.0503 28.0582 38.3043C27.8121 38.5583 27.5176 38.7622 27.1915 38.9041C26.8654 39.0461 26.5141 39.1234 26.1576 39.1316C26.1126 39.1387 26.0666 39.1387 26.0216 39.1316V39.1598Z" fill="#4EA8DE"/>
<path d="M29.8959 50.5958C29.7167 50.5901 29.5382 50.6198 29.3708 50.683C29.2034 50.7462 29.0505 50.8416 28.9211 50.9638C28.7917 51.086 28.6884 51.2323 28.6172 51.3943C28.546 51.5563 28.5084 51.7307 28.5066 51.9072V56.067C28.5066 56.4297 28.653 56.7776 28.9135 57.0342C29.1741 57.2907 29.5274 57.4348 29.8959 57.4348C30.2644 57.4348 30.6178 57.2907 30.8783 57.0342C31.1389 56.7776 31.2852 56.4297 31.2852 56.067V51.9636C31.291 51.7877 31.2611 51.6126 31.1973 51.4482C31.1336 51.2839 31.0372 51.1337 30.9139 51.0064C30.7906 50.879 30.6428 50.7772 30.4791 50.7067C30.3154 50.6362 30.139 50.5985 29.9604 50.5958H29.8959Z" fill="#5E60CE"/>
<path d="M22.1615 50.5958C21.9793 50.5863 21.797 50.613 21.6255 50.6743C21.4539 50.7356 21.2967 50.8302 21.163 50.9526C21.0294 51.0749 20.9221 51.2225 20.8476 51.3865C20.7731 51.5505 20.7328 51.7275 20.7292 51.9072V56.067C20.7292 56.4297 20.8756 56.7777 21.1362 57.0342C21.3967 57.2907 21.7501 57.4348 22.1186 57.4348C22.487 57.4348 22.8404 57.2907 23.101 57.0342C23.3615 56.7777 23.5079 56.4297 23.5079 56.067V51.9636C23.5136 51.7877 23.4837 51.6126 23.42 51.4482C23.3562 51.2839 23.2599 51.1337 23.1366 51.0064C23.0133 50.879 22.8654 50.7772 22.7017 50.7067C22.538 50.6362 22.3617 50.5985 22.183 50.5958H22.1615Z" fill="#5E60CE"/>
<path d="M25.9213 50.5958C25.7426 50.592 25.5649 50.623 25.3984 50.6869C25.2318 50.7507 25.0797 50.8463 24.9507 50.9681C24.8217 51.0899 24.7183 51.2355 24.6464 51.3966C24.5746 51.5577 24.5357 51.7312 24.532 51.9072V57.6392C24.532 58.002 24.6784 58.3499 24.9389 58.6064C25.1995 58.8629 25.5528 59.007 25.9213 59.007C26.2898 59.007 26.6432 58.8629 26.9037 58.6064C27.1643 58.3499 27.3106 58.002 27.3106 57.6392V51.9988C27.3164 51.823 27.2865 51.6478 27.2227 51.4835C27.159 51.3191 27.0626 51.1689 26.9393 51.0416C26.816 50.9143 26.6682 50.8124 26.5045 50.7419C26.3408 50.6714 26.1644 50.6337 25.9858 50.631L25.9213 50.5958Z" fill="#5E60CE"/>
</g>
<defs>
<clipPath id="clip0_2512_97">
<rect width="22" height="36" fill="white" transform="translate(15 23)"/>
</clipPath>
</defs>
</svg>
